HIERARCHY
ROOT hip
{
  OFFSET 0 0 0
  CHANNELS 6 Xposition Yposition Zposition Zrotation Yrotation Xrotation
  JOINT abdomen
  {
    OFFSET 0 20.6881 -0.73152
    CHANNELS 3 Zrotation Xrotation Yrotation
    JOINT chest
    {
      OFFSET 0 11.7043 -0.48768
      CHANNELS 3 Zrotation Xrotation Yrotation
      JOINT neck
      {
        OFFSET 0 22.1894 -2.19456
        CHANNELS 3 Zrotation Xrotation Yrotation
        JOINT head
        {
          OFFSET -0.24384 7.07133 1.2192
          CHANNELS 3 Zrotation Xrotation Yrotation
          JOINT leftEye
          {
            OFFSET 4.14528 8.04674 8.04672
            CHANNELS 3 Zrotation Xrotation Yrotation
            End Site
            {
              OFFSET 1 0 0
            }
          }
          JOINT rightEye
          {
            OFFSET -3.6576 8.04674 8.04672
            CHANNELS 3 Zrotation Xrotation Yrotation
            End Site
            {
              OFFSET 1 0 0
            }
          }
        }
      }
      JOINT rCollar
      {
        OFFSET -2.68224 19.2634 -4.8768
        CHANNELS 3 Zrotation Xrotation Yrotation
        JOINT rShldr
        {
          OFFSET -8.77824 -1.95073 1.46304
          CHANNELS 3 Zrotation Xrotation Yrotation
          JOINT rForeArm
          {
            OFFSET -28.1742 -1.7115 0.48768
            CHANNELS 3 Zrotation Xrotation Yrotation
            JOINT rHand
            {
              OFFSET -22.5879 0.773209 7.07136
              CHANNELS 3 Zrotation Xrotation Yrotation
              JOINT rThumb1
              {
                OFFSET -1.2192 -0.487915 3.41376
                CHANNELS 3 Zrotation Xrotation Yrotation
                JOINT rThumb2
                {
                  OFFSET -3.37035 -0.52449 3.41376
                  CHANNELS 3 Zrotation Xrotation Yrotation
                  End Site
                  {
                    OFFSET -1.78271 -1.18214 1.43049
                  }
                }
              }
              JOINT rIndex1
              {
                OFFSET -7.75947 0.938293 5.60832
                CHANNELS 3 Zrotation Xrotation Yrotation
                JOINT rIndex2
                {
                  OFFSET -2.54057 -0.884171 1.56538
                  CHANNELS 3 Zrotation Xrotation Yrotation
                  End Site
                  {
                    OFFSET -1.62519 -0.234802 1.16502
                  }
                }
              }
              JOINT rMid1
              {
                OFFSET -8.24714 1.18213 3.41376
                CHANNELS 3 Zrotation Xrotation Yrotation
                JOINT rMid2
                {
                  OFFSET -3.10165 -0.590103 1.0647
                  CHANNELS 3 Zrotation Xrotation Yrotation
                  End Site
                  {
                    OFFSET -2.48547 -0.328903 0.83742
                  }
                }
              }
              JOINT rRing1
              {
                OFFSET -8.82822 0.546677 1.51678
                CHANNELS 3 Zrotation Xrotation Yrotation
                JOINT rRing2
                {
                  OFFSET -2.60934 -0.819778 -0.0198488
                  CHANNELS 3 Zrotation Xrotation Yrotation
                  End Site
                  {
                    OFFSET -2.33842 -0.294052 0.168128
                  }
                }
              }
              JOINT rPinky1
              {
                OFFSET -8.27202 -0.0477905 -0.4584
                CHANNELS 3 Zrotation Xrotation Yrotation
                JOINT rPinky2
                {
                  OFFSET -1.82734 -0.647385 -0.700984
                  CHANNELS 3 Zrotation Xrotation Yrotation
                  End Site
                  {
                    OFFSET -1.69225 -0.51767 -0.607171
                  }
                }
              }
            }
          }
        }
      }
      JOINT lCollar
      {
        OFFSET 2.68224 19.2634 -4.8768
        CHANNELS 3 Zrotation Xrotation Yrotation
        JOINT lShldr
        {
          OFFSET 8.77824 -1.95073 1.46304
          CHANNELS 3 Zrotation Xrotation Yrotation
          JOINT lForeArm
          {
            OFFSET 28.1742 -1.7115 0.48768
            CHANNELS 3 Zrotation Xrotation Yrotation
            JOINT lHand
            {
              OFFSET 22.5879 0.773209 7.07136
              CHANNELS 3 Zrotation Xrotation Yrotation
              JOINT lThumb1
              {
                OFFSET 1.2192 -0.487915 3.41376
                CHANNELS 3 Zrotation Xrotation Yrotation
                JOINT lThumb2
                {
                  OFFSET 3.37035 -0.52449 3.41376
                  CHANNELS 3 Zrotation Xrotation Yrotation
                  End Site
                  {
                    OFFSET 1.78271 -1.18214 1.43049
                  }
                }
              }
              JOINT lIndex1
              {
                OFFSET 7.75947 0.938293 5.60832
                CHANNELS 3 Zrotation Xrotation Yrotation
                JOINT lIndex2
                {
                  OFFSET 2.54057 -0.884171 1.56538
                  CHANNELS 3 Zrotation Xrotation Yrotation
                  End Site
                  {
                    OFFSET 1.62519 -0.234802 1.16502
                  }
                }
              }
              JOINT lMid1
              {
                OFFSET 8.24714 1.18213 3.41376
                CHANNELS 3 Zrotation Xrotation Yrotation
                JOINT lMid2
                {
                  OFFSET 3.10165 -0.590103 1.0647
                  CHANNELS 3 Zrotation Xrotation Yrotation
                  End Site
                  {
                    OFFSET 2.48547 -0.328903 0.83742
                  }
                }
              }
              JOINT lRing1
              {
                OFFSET 8.82822 0.546677 1.51678
                CHANNELS 3 Zrotation Xrotation Yrotation
                JOINT lRing2
                {
                  OFFSET 2.60934 -0.819778 -0.0198488
                  CHANNELS 3 Zrotation Xrotation Yrotation
                  End Site
                  {
                    OFFSET 2.33842 -0.294052 0.168128
                  }
                }
              }
              JOINT lPinky1
              {
                OFFSET 8.27202 -0.0477905 -0.4584
                CHANNELS 3 Zrotation Xrotation Yrotation
                JOINT lPinky2
                {
                  OFFSET 1.82734 -0.647385 -0.700984
                  CHANNELS 3 Zrotation Xrotation Yrotation
                  End Site
                  {
                    OFFSET 1.69225 -0.51767 -0.607171
                  }
                }
              }
            }
          }
        }
      }
    }
  }
  JOINT rButtock
  {
    OFFSET -8.77824 4.35084 1.2192
    CHANNELS 3 Zrotation Xrotation Yrotation
    JOINT rThigh
    {
      OFFSET 0 -1.70687 -2.19456
      CHANNELS 3 Zrotation Xrotation Yrotation
      JOINT rShin
      {
        OFFSET 0 -36.8199 0.73152
        CHANNELS 3 Zrotation Xrotation Yrotation
        JOINT rFoot
        {
          OFFSET 0.73152 -45.1104 -5.12064
          CHANNELS 3 Zrotation Xrotation Yrotation
          End Site
          {
            OFFSET -1.1221 -3.69964 12.103
          }
        }
      }
    }
  }
  JOINT lButtock
  {
    OFFSET 8.77824 4.35084 1.2192
    CHANNELS 3 Zrotation Xrotation Yrotation
    JOINT lThigh
    {
      OFFSET 0 -1.70687 -2.19456
      CHANNELS 3 Zrotation Xrotation Yrotation
      JOINT lShin
      {
        OFFSET 0 -36.8199 0.73152
        CHANNELS 3 Zrotation Xrotation Yrotation
        JOINT lFoot
        {
          OFFSET -0.73152 -45.1104 -5.12064
          CHANNELS 3 Zrotation Xrotation Yrotation
          End Site
          {
            OFFSET 1.1221 -3.69964 12.103
          }
        }
      }
    }
  }
}
MOTION
Frames:	5
Frame Time:	0.03333
51.1807 61.8781 2.2576 -0.828962 47.458749 0.253583 -4.985292 13.858816 -87.299983 11.058353 -4.118079 103.309321 8.589693 23.087216 107.439372 -30.733819 10.811751 -82.845174 -0.002079 -0.0 1.9e-05 -0.002079 -0.0 1.9e-05 -82.877564 68.300867 86.000551 -81.978884 17.730294 55.635263 -118.705042 -17.41254 -54.931615 8.469364 -11.460123 5.322378 -107.933838 35.149865 63.317839 -129.455277 -15.082892 72.471624 -50.388087 40.82477 40.025442 84.574805 -62.773105 37.524988 0.048179 -0.13859 -0.025644 -0.878814 11.527635 1.925185 -72.134259 72.974968 89.989506 3.013242 46.290103 2.902452 -124.849678 -29.037844 -122.621184 -1.609328 -10.906337 -5.518017 0.272934 1.606756 -0.361585 -61.427894 -5.78871 -58.762305 23.916603 -3.877522 -122.443229 -0.533618 30.492943 -7.36606 171.653576 -9.336353 -89.948638 -57.927156 -68.337468 -44.67092 -37.215303 -57.917978 0.643702 48.572195 50.600911 -39.795548 22.005213 41.040742 -17.008211 42.021699 58.530973 -36.210138 -0.006646 1.688405 -0.530524 156.474506 -19.603146 -174.156287 152.87463 39.99168 148.059663 162.702182 55.755714 146.900052 0.00549 -0.000601 0.002745 -19.014226 -44.302845 80.363953 76.283069 -13.844025 -147.995758 95.165186 18.573617 6.720651 -0.0 0.000302 0.00024 38.856235 -52.828998 88.510046 54.824807 23.282559 9.247574 -65.818525 55.060285 6.862813
55.2078 61.4993 2.6799 1.235417 38.580782 0.286055 -6.105256 12.92753 -78.719682 10.2757 -6.212188 99.494607 9.452216 19.87039 92.777878 -26.802709 3.4459 -67.782853 -0.002357 0.0 -0.000263 0.003365 -0.0 -0.00047 -159.219636 -48.028459 170.415679 -23.063134 -2.122135 -49.299387 -3.526419 13.608825 -135.885124 179.606392 -11.981371 143.316521 -171.7068 -9.388097 89.949031 179.489438 -16.708148 94.445179 37.216189 -57.917647 -0.64129 3.017044 19.845425 1.163432 5.893975 -18.351843 -2.543607 -154.14126 20.060292 138.70818 -0.001033 -0.018503 -0.005996 -61.408739 -86.808221 -82.960658 -132.163386 -18.65558 -129.693159 -155.000184 37.193269 -146.244561 149.904705 22.42139 -154.974418 44.449795 -10.962524 8.855483 7.36225 22.770678 142.626057 -135.659332 -52.800795 -124.358474 93.743788 37.963122 -53.548289 -14.109758 -25.17088 -23.566572 134.539913 10.541503 -112.295482 158.149323 -3.081441 -117.956818 175.934688 -50.680268 -144.033448 -3.017949 0.157777 -0.32407 -0.004983 0.876162 -0.275576 155.489677 -1.182798 -171.989901 134.876347 -13.7588 132.285314 159.651333 50.631411 147.014915 0.001327 0.000544 0.001327 -22.16623 -43.698673 -180.0 -67.618139 -61.34112 52.823089 105.421596 17.491264 2.255229 -0.0 0.000544 0.000295 42.037317 -44.869148 -128.0432 -15.897974 -45.61422 140.039241 82.721181 18.854936 -43.967856
58.087599999999995 60.417100000000005 2.9964999999999997 3.013361 31.597135 -0.675276 -7.879731 10.308246 -142.280477 8.324067 4.519859 166.629515 8.37411 15.960579 68.352757 -20.49958 -7.7332 -43.820287 -0.00153 -0.0 0.002377 0.003992 -0.0 -0.003517 -157.882362 -65.638019 175.443392 1.409718 14.971583 -48.054948 3.976105 -34.65946 -145.234356 -143.880699 30.231817 128.024631 -173.770092 -11.439987 89.89297 4.020896 -57.514221 8.839935 -173.601054 -52.692798 119.892351 -167.06435 -32.422061 117.251851 -151.476492 17.841426 137.538038 3.213028 0.28806 0.379622 -145.121878 2.05804 -179.772009 11.64763 26.296663 -6.0026 -117.243413 -36.645585 -115.187865 63.121195 83.754043 -24.490021 -4.239505 -44.742705 8.648215 108.319136 -9.768995 174.471173 86.179305 27.090159 104.620122 -29.056185 -51.517345 -19.064602 174.391046 -12.052568 -89.858796 77.898428 7.044407 -25.24243 18.649739 23.634523 -12.970354 75.106705 48.901809 -55.983237 10.976837 25.78953 -7.641066 178.336637 -46.344955 -142.053914 0.013461 -1.323148 0.415933 156.008836 -13.748219 -173.485113 111.959688 -40.576547 110.002639 147.128967 13.393557 142.680132 -0.000381 -0.000915 -0.000571 -24.760546 -40.823415 -35.204318 -85.492814 84.561545 -64.222185 -175.392752 6.120714 -119.702082 -0.000381 -0.000915 -0.000571 40.074118 -36.573699 54.691921 15.458891 52.097035 -125.573293 -106.808953 81.493325 159.342375
59.8958 58.7504 3.4351 3.483463 29.096568 -2.418973 -6.596783 13.501904 -84.452147 10.052549 -5.66785 110.166875 -3.381234 12.123408 -3.326484 13.555931 -16.090076 33.555649 0.002289 -0.0 -2.9e-05 0.002289 -0.0 -2.9e-05 4.239519 -44.742836 -8.646602 65.824878 22.539141 -32.37076 -13.942634 45.756192 125.92812 -21.625567 -66.820889 -24.172282 -78.031183 38.688915 42.412333 178.164108 -46.738875 76.899592 -77.667968 43.02983 64.538227 -162.333409 -6.742748 113.837986 -36.037426 51.722707 29.832613 3.156858 0.735391 0.168068 -145.119737 0.309514 -179.226919 -155.514066 0.827852 -179.333712 12.985758 44.344638 10.763308 -129.316384 -29.033943 -126.73888 155.459871 -3.227496 -161.778479 -74.536535 72.745398 114.012736 124.304602 -47.410972 -88.694178 -134.733526 -60.191533 -117.984113 -4.005414 -3.987688 0.479228 -16.996289 -30.763943 15.835927 -5.774679 -9.908545 2.904303 8.513287 25.878397 -8.166347 160.672387 -6.66788 -143.24555 170.280651 -25.742012 -143.887611 145.120841 1.975035 179.749655 148.288253 -43.00827 170.621355 145.172277 12.067372 141.823856 24.183318 -39.11386 25.593813 179.997511 75.7497 -0.0 157.189218 28.009329 -180.0 33.117981 -83.225178 -176.427664 -27.835987 -26.890628 8.563663 -179.951461 75.750438 -0.037412 -142.81897 25.095414 119.211779 55.405821 -25.824127 165.233952 137.394659 8.088534 -102.549746
61.2526 57.3135 3.7638 0.729364 30.422718 -5.619371 -5.602709 16.935075 -27.390791 3.171812 -12.033673 50.225395 9.417875 25.756445 118.876602 -27.536272 13.762359 -87.525543 7.7e-05 -0.0 -0.002213 8.5e-05 -0.0 -0.003182 3.544268 -62.053065 -13.037087 38.447677 2.028032 -42.595898 72.053417 -84.767248 -77.772337 -134.738981 36.909998 120.128401 -5.334694 5.170848 1.052503 72.959394 -76.658433 4.991422 -77.667792 43.03149 64.538132 -172.16939 -22.851308 113.508202 -160.826951 -7.141601 143.316644 92.056201 -78.190223 63.068118 0.003365 1.771366 0.55665 -140.505713 60.463095 154.518636 -12.007114 -23.632408 -11.401373 -147.227953 12.833866 -143.862626 85.537553 68.182684 -88.688906 -93.592719 -32.310054 -110.009377 104.903706 -11.864921 -28.273187 -28.801032 -47.797507 -20.299205 171.705888 -9.388427 -89.949377 121.938159 13.376279 -57.748015 174.890165 -54.095175 -119.333039 -145.367493 -66.966072 -83.79823 156.686315 5.002405 -141.075957 88.618171 63.702721 -80.380795 0.008579 -0.872074 0.274193 -9.777747 -62.547127 9.183998 79.55326 -51.376885 77.988678 24.108804 -40.945148 26.112639 -0.0 -0.000133 -0.001542 -24.671739 -38.841074 -36.220085 -36.5287 82.391527 72.432307 -166.604752 8.125828 58.652391 -0.002555 0.000605 -0.001277 45.910938 -36.498528 60.050176 41.392065 52.234856 16.940426 117.818908 -73.000231 -8.884725
